<svg width="105" height="22" xmlns="http://www.w3.org/2000/svg"><path d="M17.045 0h4.038v12.86c0 6.765-4.306 9.14-10.553 9.14C4.306 22 0 19.625 0 12.86V.514C0 .157.178 0 .535 0h4.039v12.658c0 4.055 1.784 5.735 5.956 5.735 4.195 0 5.98-1.68 5.98-5.735V.515c0-.358.178-.515.535-.515zM62.76 3.517V8.94h10.218c.178 0 .245.09.178.269l-1.115 2.778c-.112.246-.268.358-.602.358h-6.002c-1.963 0-2.677.605-2.677 1.927v3.83H76.59c.179 0 .246.09.179.27l-1.16 2.89c-.112.246-.268.358-.603.358H59.86c-1.16 0-1.607-.403-1.607-1.277V1.501C58.252.448 58.832 0 60.35 0h16.242c.179 0 .246.09.179.246L75.61 3.16c-.112.246-.268.358-.603.358H62.76zM49.93 15.637c0 4.324-3.034 5.982-7.295 5.982H31.346c-1.182 0-1.606-.403-1.606-1.277V1.501C29.74.448 30.297 0 31.837 0h9.17c4.015 0 7.897.695 7.897 5.489 0 2.06-.736 3.808-2.499 4.727 2.432.65 3.525 2.845 3.525 5.421zm-15.75-6.63h7.161c2.365 0 3.034-.92 3.034-2.801 0-1.882-.67-2.778-3.034-2.778h-7.162v5.578zM45.4 15.233c0-1.994-.691-2.98-3.235-2.98H36.88c-1.963 0-2.7.605-2.7 1.927v4.01h7.987c2.544 0 3.235-.985 3.235-2.957zm59.346 6.385h-4.105c-.335 0-.469-.134-.603-.358l-4.35-7.886h-3.994c-1.963 0-2.7.605-2.7 1.926v6.318H85.07c-.357 0-.535-.18-.535-.515V1.5C84.534.448 85.114 0 86.63 0h9.214c5.377 0 8.612 1.411 8.612 6.654 0 4.055-1.941 5.645-4.35 6.273l4.84 8.311c.09.135.09.381-.2.381zm-4.82-14.876c0-2.195-.602-3.27-3.413-3.27h-7.518v6.541h7.518c2.811 0 3.414-1.053 3.414-3.27z" fill="#919EB7" fill-rule="nonzero"/></svg>