<svg width="80" height="28" xmlns="http://www.w3.org/2000/svg"><path d="M14.405 14.317c0-3.065-2.053-4.807-4.96-4.807H7.666v9.617h1.729c2.703 0 5.01-1.455 5.01-4.81zm31.646 3.46L32.945 28l-11.978-9.342c-1.729 4.113-5.905 6.97-10.715 6.97H0V3.006h10.252c5.374 0 9.247 3.386 10.711 6.993L32.945.667l4.438 3.46-10.981 8.55 2.11 1.635L39.49 5.768l4.444 3.45-10.98 8.559 2.108 1.64 10.99-8.561v-7.85h7.966v16.02h7.947v6.63H46.05v-7.879zm26.005 1.251H80v6.628H64.082V3.006h7.974v16.022z" fill="#919EB7" fill-rule="nonzero"/></svg>