<svg width="2220" height="489" xmlns="http://www.w3.org/2000/svg" xmlns:xlink="http://www.w3.org/1999/xlink"><defs><linearGradient x1="87.336%" y1="7.447%" x2="66.279%" y2="44.56%" id="a"><stop stop-color="#A3A9F1" offset="0%"/><stop stop-color="#6A72E4" offset="100%"/></linearGradient><linearGradient x1="50%" y1="0%" x2="50%" y2="100%" id="c"><stop stop-color="#82DDFC" offset="0%"/><stop stop-color="#0181F6" offset="100%"/></linearGradient><path d="M667.21 644.029c111.82-59.115-15.77-185.344-15.77-321.482 0-136.138-.284-340.372-136.422-321.106C378.88 20.708 433.487 224.707 85.874 306.688c-347.614 81.98 469.517 396.456 581.336 337.34z" id="b"/><linearGradient x1="50%" y1="0%" x2="4.666%" y2="38.561%" id="d"><stop stop-color="#FFC570" offset="0%"/><stop stop-color="#FFC570" offset="100%"/></linearGradient></defs><g fill="none" fill-rule="evenodd"><path d="M675.09 555.602c101.344 0-138.133-250.973-138.133-352.317S664.223.91 562.879.91C461.535.91.543 80.5.543 181.844S573.746 555.602 675.09 555.602z" transform="translate(1297 -154)" fill="url(#a)"/><use fill="url(#c)" transform="scale(-1 1) rotate(-7 -2827.822 18266.973)" xlink:href="#b"/><path d="M1756.268 376.615c25.623-6.112-162.775-75.658-165.142-52.556-8.83-30.583-29.49 107.482-26.462 93.518-20.935 9.335 189.449 74.971 167.998 71.109 10.437-20.817 50.106-134.808 21.235-138.721-.235-3.395 20.923-.383 2.371 26.65" fill="#FFE5F1"/><path d="M1732.02 343.944c25.623-6.111-162.774-75.658-165.141-52.555-8.83-30.584-29.491 107.481-26.463 93.517-20.934 9.336 189.45 74.972 167.998 71.11 10.438-20.818 50.106-134.809 21.235-138.721-.234-3.396 20.923-.383 2.372 26.65m-2.163.983c25.068-5.827-.326 89.03-2.567 111.375-8.748-29.622-187.816-58.88-184.896-72.381-20.468 8.963 26.442-89.605 5.425-93.413 10.151-20.107 207.909 32.507 179.628 28.626" fill="#FF6DB1"/><g transform="translate(1017 -77)" fill="url(#d)"><path d="M78.72 44.447c-4.177 0-7.78 1.319-11.782 1.95-4.106.648-9.151-3.22-13.021-1.96-3.936 1.282-8.109 2.748-11.746 4.608-3.673 1.88-7.553 4.062-10.865 6.474-3.327 2.424-5.517 6.524-8.42 9.428-2.904 2.904-4.246 7.103-6.669 10.429-2.413 3.312-3.311 7.25-5.19 10.924-1.861 3.637-2.448 7.345-3.729 11.28-1.26 3.87-4.385 6.987-5.033 11.092C1.634 112.674 0 116.604 0 120.78c0 4.177.694 8.255 1.325 12.257.648 4.106-.786 8.865.474 12.734 1.282 3.936 2.97 8.102 4.831 11.74 1.879 3.673 6.753 5.67 9.166 8.98 2.423 3.328 4.466 6.94 7.37 9.843 2.905 2.905 5.4 6.48 8.726 8.904 3.312 2.413 8.601 1.5 12.274 3.378 3.637 1.862 6.108 6.328 10.044 7.61 3.87 1.26 8.387-.215 12.492.432 4.002.632 7.841 4.102 12.018 4.102 4.177 0 8.403-1.013 12.405-1.644 4.106-.648 7.963-2.465 11.833-3.726 3.936-1.281 6.808-4.661 10.445-6.522 3.673-1.88 6.36-4.613 9.672-7.025 3.327-2.424 7.491-3.41 10.395-6.313 2.904-2.904 8.919-3.404 11.343-6.73 2.412-3.312 1.89-8.756 3.769-12.43 1.861-3.636 2.752-7.648 4.034-11.585a76.417 76.417 0 0 0 2.852-11.85c.631-4.002 3.319-7.978 3.319-12.155 0-4.176-.643-8.475-1.274-12.477-.648-4.106-.354-8.728-1.614-12.598-1.282-3.935-4.11-7.567-5.97-11.204-1.879-3.674-3.522-7.832-5.935-11.144-2.423-3.327-8.219-3.824-11.123-6.728s-2.893-9.397-6.22-11.821c-3.311-2.412-9.742.089-13.415-1.79-3.637-1.861-5.739-7.418-9.675-8.7-3.87-1.26-8.789 1.68-12.894 1.032-4.002-.631-7.77-.903-11.947-.903" fill-opacity=".24"/><path d="M105.648 11.47c-4.177 0-7.78 1.319-11.782 1.95-4.106.648-9.151-3.22-13.021-1.96-3.936 1.282-8.109 2.748-11.746 4.608-3.673 1.88-7.553 4.062-10.865 6.474-3.327 2.424-5.517 6.524-8.42 9.428-2.904 2.904-4.246 7.103-6.669 10.429-2.413 3.312-3.311 7.25-5.19 10.924-1.861 3.637-2.448 7.345-3.729 11.281-1.26 3.869-4.385 6.986-5.033 11.091-.631 4.002-2.265 7.932-2.265 12.108 0 4.177.694 8.255 1.325 12.257.648 4.106-.786 8.865.474 12.734 1.282 3.936 2.97 8.102 4.831 11.74 1.879 3.673 6.753 5.67 9.166 8.981 2.423 3.327 4.466 6.939 7.37 9.842 2.905 2.905 5.4 6.481 8.726 8.904 3.312 2.413 8.601 1.5 12.274 3.378 3.637 1.862 6.108 6.328 10.044 7.61 3.87 1.26 8.387-.215 12.492.432 4.002.632 7.841 4.102 12.018 4.102 4.177 0 8.403-1.013 12.405-1.644 4.106-.648 7.963-2.465 11.833-3.726 3.936-1.281 6.808-4.661 10.445-6.522 3.673-1.879 6.36-4.613 9.672-7.025 3.327-2.424 7.491-3.409 10.395-6.313s8.919-3.404 11.343-6.73c2.412-3.312 1.89-8.756 3.769-12.43 1.861-3.636 2.752-7.648 4.034-11.585a76.417 76.417 0 0 0 2.852-11.85c.631-4.002 3.319-7.978 3.319-12.155 0-4.176-.643-8.475-1.274-12.477-.648-4.106-.354-8.728-1.614-12.598-1.282-3.935-4.11-7.567-5.97-11.204-1.879-3.674-3.522-7.832-5.935-11.144-2.423-3.327-8.219-3.824-11.123-6.728s-2.893-9.397-6.22-11.821c-3.311-2.412-9.742.089-13.415-1.79-3.637-1.861-5.739-7.418-9.675-8.7-3.87-1.26-8.789 1.68-12.894 1.032-4.002-.631-7.77-.903-11.947-.903m0 165c-4.179 0-8.742.7-12.764.125-4.119-.59-7.195-6.328-11.108-7.478-3.979-1.17-7.496-2.761-11.215-4.466-3.759-1.723-7.025-3.719-10.473-5.941-3.467-2.236-7.628-3.244-10.733-5.939-3.111-2.699-7.273-4.441-9.972-7.551-2.694-3.105-6.371-5.834-8.606-9.302-2.223-3.448-5.19-7.008-6.913-10.767-1.704-3.719-1.107-8.69-2.277-12.668-1.15-3.913-.759-8.281-1.349-12.4C19.663 96.06 19 91.982 19 87.803c0-4.178 2.794-7.953 3.369-11.974.59-4.12 1.441-7.801 2.592-11.713 1.17-3.979-.333-8.811 1.373-12.53 1.723-3.759 4.426-7.029 6.649-10.476 2.236-3.468 5.533-6.035 8.227-9.14 2.699-3.11 3.162-8.597 6.272-11.295 3.105-2.694 8.395-2.699 11.862-4.934 3.448-2.224 5.918-6.427 9.677-8.15 3.719-1.705 8.697-.204 12.675-1.374 3.913-1.151 7.637-2.654 11.756-3.244 4.022-.575 8.018-1.728 12.196-1.728 4.179 0 8.583-1.702 12.605-1.126 4.12.589 8.699.65 12.611 1.8 3.979 1.17 7.424 4.556 11.143 6.261 3.759 1.724 5.196 7.359 8.643 9.582 3.468 2.236 8.569 1.938 11.674 4.632 3.111 2.7 6.583 5.15 9.282 8.261a88.733 88.733 0 0 1 7.469 9.966c2.223 3.447 2.108 8.15 3.831 11.909 1.705 3.72 3.362 7.284 4.532 11.262 1.15 3.913.631 7.956 1.22 12.076.576 4.021 2.063 7.757 2.063 11.935 0 4.179-1.059 7.976-1.635 11.998-.589 4.12 2.524 8.991 1.374 12.903-1.17 3.978-7.22 6.027-8.925 9.746-1.723 3.759 1.141 9.979-1.082 13.428-2.236 3.467-8.194 4.202-10.888 7.306-2.699 3.112-2.788 8.88-5.899 11.578-3.105 2.695-5.935 6.454-9.403 8.69-3.448 2.223-8.632 1.96-12.391 3.684-3.719 1.705-8.238 1.277-12.216 2.447-3.912 1.15-7.479 3.951-11.599 4.54-4.021.575-8.231 2.347-12.409 2.347"/></g></g></svg>