<svg width="360" height="360" xmlns="http://www.w3.org/2000/svg"><defs><linearGradient x1="50%" y1="0%" x2="4.666%" y2="38.561%" id="a"><stop stop-color="#FFC570" offset="0%"/><stop stop-color="#FFC570" offset="100%"/></linearGradient></defs><g fill="none" fill-rule="evenodd"><path d="M107.72 68.447c-4.177 0-7.78 1.319-11.782 1.95-4.106.648-9.151-3.22-13.021-1.96-3.936 1.282-8.109 2.748-11.746 4.608-3.673 1.88-7.553 4.062-10.865 6.474-3.327 2.424-5.517 6.524-8.42 9.428-2.904 2.904-4.246 7.103-6.669 10.429-2.413 3.312-3.311 7.25-5.19 10.924-1.861 3.637-2.448 7.345-3.729 11.28-1.26 3.87-4.385 6.987-5.033 11.092-.631 4.002-2.265 7.932-2.265 12.108 0 4.177.694 8.255 1.325 12.257.648 4.106-.786 8.865.474 12.734 1.282 3.936 2.97 8.102 4.831 11.74 1.879 3.673 6.753 5.67 9.166 8.98 2.423 3.328 4.466 6.94 7.37 9.843 2.905 2.905 5.4 6.48 8.726 8.904 3.312 2.413 8.601 1.5 12.274 3.378 3.637 1.862 6.108 6.328 10.044 7.61 3.87 1.26 8.387-.215 12.492.432 4.002.632 7.841 4.102 12.018 4.102 4.177 0 8.403-1.013 12.405-1.644 4.106-.648 7.963-2.465 11.833-3.726 3.936-1.281 6.808-4.661 10.445-6.522 3.673-1.88 6.36-4.613 9.672-7.025 3.327-2.424 7.491-3.41 10.395-6.313 2.904-2.904 8.919-3.404 11.343-6.73 2.412-3.312 1.89-8.756 3.769-12.43 1.861-3.636 2.752-7.648 4.034-11.585a76.417 76.417 0 0 0 2.852-11.85c.631-4.002 3.319-7.978 3.319-12.155 0-4.176-.643-8.475-1.274-12.477-.648-4.106-.354-8.728-1.614-12.598-1.282-3.935-4.11-7.567-5.97-11.204-1.879-3.674-3.522-7.832-5.935-11.144-2.423-3.327-8.219-3.824-11.123-6.728s-2.893-9.397-6.22-11.821c-3.311-2.412-9.742.089-13.415-1.79-3.637-1.861-5.739-7.418-9.675-8.7-3.87-1.26-8.789 1.68-12.894 1.032-4.002-.631-7.77-.903-11.947-.903" fill-opacity=".24" fill="url(#a)"/><path d="M303.932 173.046c-.42 0-.784.134-1.187.199-.414.066-.922-.329-1.312-.2a8.21 8.21 0 0 0-1.184.47c-.37.192-.76.414-1.094.66-.336.248-.556.667-.849.963-.293.296-.428.725-.672 1.064-.243.338-.334.74-.523 1.115-.187.372-.247.75-.376 1.152-.127.395-.441.713-.507 1.132-.063.408-.228.81-.228 1.236 0 .426.07.842.134 1.25.065.42-.08.906.047 1.3.13.402.3.827.487 1.199.19.375.68.578.924.916.244.34.45.709.742 1.005.293.296.544.661.88.909.333.246.866.153 1.236.344.367.19.616.646 1.012.777.39.129.846-.022 1.26.044.402.065.79.419 1.21.419.421 0 .847-.103 1.25-.168.414-.066.802-.251 1.192-.38.397-.13.686-.476 1.053-.666.37-.192.64-.47.975-.717.335-.247.754-.348 1.047-.644.293-.297.899-.348 1.143-.687.243-.338.19-.894.38-1.269.187-.37.277-.78.406-1.182.127-.395.222-.79.288-1.21.063-.408.334-.814.334-1.24 0-.427-.065-.865-.128-1.274-.066-.419-.036-.89-.163-1.286-.13-.401-.414-.772-.602-1.143-.189-.375-.354-.8-.598-1.138-.244-.34-.828-.39-1.12-.686-.293-.297-.292-.96-.627-1.207-.334-.246-.982.01-1.352-.183-.366-.19-.578-.757-.975-.888-.39-.128-.885.172-1.299.106a7.423 7.423 0 0 0-1.204-.092" fill="#FFBADA"/></g></svg>