<svg width="360" height="360" xmlns="http://www.w3.org/2000/svg"><path d="M82.4 245.782l5.99-9.924 8.4-8.376 4.637-11.308 11.005-4.631 9.47-6.744.336-14.447.77-14.296 9.986-7.669 11.915-4.743 10.71-7.175-2.633-3.504-10.626 7.67-11.64 6.074-11.006 7.464-1.852 14.494.233 14.019-8.876 5.802-8.064 7.397-7.756 8.162-7.08 8.902-5.617 9.533-12.503-.01-12.774-.387-11.965 2.18-8.312 8.11-5.16 11.186-8.616 9.337 2.798.978 6.351-9.34 7.538-9.005 6.234-9.758 12.688.706 12.768-1.744 12.65 1.049z" fill="#5FFAD0" fill-rule="evenodd"/></svg>