<svg width="576" height="432" xmlns="http://www.w3.org/2000/svg" xmlns:xlink="http://www.w3.org/1999/xlink"><defs><linearGradient x1="87.336%" y1="7.447%" x2="66.279%" y2="44.56%" id="a"><stop stop-color="#A3A9F1" offset="0%"/><stop stop-color="#6A72E4" offset="100%"/></linearGradient><linearGradient x1="50%" y1="0%" x2="50%" y2="100%" id="c"><stop stop-color="#82DDFC" offset="0%"/><stop stop-color="#0181F6" offset="100%"/></linearGradient><path d="M287.224 278.818c48.162-25.6-6.793-80.262-6.793-139.216 0-58.953-.122-147.395-58.759-139.052-58.637 8.343-35.117 96.683-184.84 132.184-149.722 35.501 202.23 171.683 250.392 146.084z" id="b"/></defs><g fill="none" fill-rule="evenodd"><path d="M296.027 245.5c44.476 0-60.62-110.851-60.62-155.614C235.407 45.124 291.258.5 246.783.5S0 35.654 0 80.416C0 125.178 251.552 245.5 296.027 245.5z" transform="translate(124 73)" fill="url(#a)"/><use fill="url(#c)" transform="matrix(-1 0 0 1 442 83)" xlink:href="#b"/><path d="M489.868 272.75c18.837-10.111-143.761-24.966-140.758-6.472-13.371-21.986-.543 89.903-1.104 78.39C333.53 356.313 512.572 363.531 494.912 365c3.816-18.399 10.983-115.498-12.515-112.52-.898-2.596 16.352-4.666 7.47 20.27" fill="#FFE5F1"/><path d="M464.052 252.75c18.854-10.111-143.89-24.966-140.885-6.472-13.383-21.986-.544 89.903-1.104 78.39C307.573 336.313 486.777 343.531 469.1 345c3.82-18.399 10.993-115.498-12.526-112.52-.9-2.596 16.366-4.666 7.477 20.27m-1.493 1.218c18.478-9.774 18.496 69.436 21.441 87.315-13.115-21.254-160.04-6.665-160.589-17.795-14.202 11.257 1.912-75.337-15.411-73.916 3.744-17.786 170.28-18.078 147.232-15.198" fill="#FF6DB1"/></g></svg>