<svg width="360" height="360" xmlns="http://www.w3.org/2000/svg"><g fill="none" fill-rule="evenodd"><path fill="#A3AAF1" d="M280.307 110l-32.023 5.121-23.682 24.158L218 171.861l7.24 32.212 24.385 22.215 31.416 9.954 33.082-7.079 21.539-25.773 11.769-32.349-6.125.918-9.676 29.102-20.67 22.63-29.919 6.482-29.196-7.732-21.477-21.331-9.361-29.249 7.244-30.475 23.175-20.831 28.993-10.389z"/><path fill="#E5E7FF" d="M281.041 217.506l-32.137-13.509-10.217-32.136 11.426-30.928 30.857-12.855.048 3.718-27.333 12.71-11.828 27.355 11.467 27.717 27.717 11.155 29.33-9.54 10.83-29.274 2.194.484-11.986 29.826z"/><path fill="#A3AAF1" d="M281.041 195.403l-23.39-23.542 23.436-24.15-.298 3.456-20.48 20.694 20.732 20.874 19.406-21.089 3.877.432z"/></g></svg>