<svg width="736" height="598" xmlns="http://www.w3.org/2000/svg"><g fill="none" fill-rule="evenodd"><path d="M237.727 522.934c33.137 0-5.727-64.359-5.727-97.496s-20.974-2.617-54.111-2.617S112 392.301 112 425.438s92.59 97.496 125.727 97.496z" fill="#A3AAF1"/><path d="M167.17 355.149c-1.964 1.142-1.836-.713-2.624-1.214-2.487-1.6-6.983-1.683-8.692-4.59-2.683-.397-3.664-2.239-6.048-3.879-1.037-.701-2.656-.76-3.667-1.423-4.35-2.892-8.152-5.996-12.101-9.457a9.89 9.89 0 0 1-1.164-1.257c-.865-1.073-2.392-1.914-2.916-3.196-.569-1.413 1.29-4.54 4.193-7.329 3.901-2.24 5-.16 6.793 1.187 2.997 2.263 6.55 5.955 9.116 8.444 1.956 1.919 4.142 3.644 5.854 5.705 1.76 2.114 3.82 3.798 5.387 5.993 1.148 1.592 1.7 3.815 2.766 5.436a41.214 41.214 0 0 1 3.103 5.58" fill="#E7EBF6"/></g></svg>