<svg width="1424" height="800" xmlns="http://www.w3.org/2000/svg"><g fill="none" fill-rule="evenodd"><path d="M567.542 433.186c-79.33 21.256-56.075 27.308-34.829 106.6 21.246 79.292 8.867 142.61 88.197 121.354 79.33-21.256 245.307-125.731 224.06-205.023-21.246-79.293-198.098-44.188-277.428-22.931z" fill="#81DDFC"/><path d="M754.956 629.773c1.902-1.243 1.871.616 2.684 1.075 2.567 1.468 7.061 1.315 8.92 4.129 2.7.256 3.777 2.044 6.243 3.557 1.073.646 2.692.62 3.736 1.229 4.496 2.66 8.455 5.562 12.58 8.81.422.335.83.746 1.228 1.195.92 1.026 2.489 1.787 3.079 3.04.642 1.381-1.05 4.601-3.804 7.537-3.778 2.441-4.985.421-6.845-.83-3.112-2.102-6.853-5.604-9.546-7.954-2.054-1.814-4.327-3.423-6.144-5.392-1.87-2.018-4.013-3.593-5.694-5.702-1.23-1.53-1.896-3.72-3.046-5.284a41.214 41.214 0 0 1-3.391-5.41" fill="#E7EBF6"/></g></svg>